<svg xmlns="http://www.w3.org/2000/svg" xmlns:xlink="http://www.w3.org/1999/xlink" width="30" height="31" viewBox="0 0 30 31"><defs><path id="tdwha" d="M30 505.51a3.73 3.73 0 0 1 3.73-3.72h22.35a3.73 3.73 0 0 1 3.73 3.72v22.36a3.73 3.73 0 0 1-3.73 3.73H33.73a3.73 3.73 0 0 1-3.73-3.73z"/><path id="tdwhd" d="M37.54 517.21a1.47 1.47 0 0 1-1.46-1.08c-.22-.8.21-1.63 1-1.9l12.6-4.25c.15-.04.3-.07.46-.07.68 0 1.26.4 1.47 1.04l.02.06c.23.83-.35 1.57-1.05 1.8l-12.53 4.31c-.17.06-.34.09-.51.1z"/><path id="tdwhe" d="M39.63 523.45a1.47 1.47 0 0 1-1.46-1.07c-.23-.8.2-1.65 1-1.92l12.6-4.28a1.52 1.52 0 0 1 1.97.94l.01.06c.12.43.05.91-.2 1.3-.17.28-.74.52-.74.52l-12.65 4.36c-.17.06-.35.09-.53.09z"/><path id="tdwhf" d="M50.12 523.48c-.67 0-1.27-.43-1.48-1.07l-4.2-12.57-.03-.07a1.56 1.56 0 0 1 2.18-1.82c.37.18.65.5.78.9l4.2 12.57.02.04a1.57 1.57 0 0 1-1.47 2.02z"/><path id="tdwhg" d="M43.87 525.6c-.67 0-1.27-.43-1.48-1.07l-4.2-12.57a1.57 1.57 0 0 1 .97-1.98 1.55 1.55 0 0 1 1.96.98l4.2 12.58a1.57 1.57 0 0 1-.97 1.97c-.16.05-.32.08-.48.08z"/><path id="tdwhh" d="M48.05 520.64l2.93-1-.96-2.87-2.93 1z"/><path id="tdwhi" d="M41.8 522.8l2.94-1.02-.97-2.88-2.93 1z"/><path id="tdwhj" d="M45.96 514.4l2.93-1-.94-2.84-2.94 1z"/><path id="tdwhk" d="M39.72 516.55l2.93-1.01-.96-2.87-2.93 1z"/><mask id="tdwhc" width="2" height="2" x="-1" y="-1"><path fill="#fff" d="M30 501h30v31H30z"/><use xlink:href="#tdwha"/></mask><filter id="tdwhb" width="70" height="76" x="10" y="491" filterUnits="userSpaceOnUse"><feOffset dy="5" in="SourceGraphic" result="FeOffset1036Out"/><feGaussianBlur in="FeOffset1036Out" result="FeGaussianBlur1037Out" stdDeviation="4 4"/></filter></defs><g><g transform="translate(-30 -501)"><g><g><g filter="url(#tdwhb)"><use fill="none" stroke-opacity=".05" stroke-width="0" mask="url(&quot;#tdwhc&quot;)" xlink:href="#tdwha"/><use fill="#2d3a42" fill-opacity=".05" xlink:href="#tdwha"/></g><use fill="#fff" xlink:href="#tdwha"/></g></g><g><g><g><use fill="#70cadb" xlink:href="#tdwhd"/></g></g><g><g><use fill="#e01765" xlink:href="#tdwhe"/></g></g><g><g><use fill="#e8a723" xlink:href="#tdwhf"/></g></g><g><g><use fill="#3eb890" xlink:href="#tdwhg"/></g></g><g><g><use fill="#cc2027" xlink:href="#tdwhh"/></g></g><g><g><use fill="#361238" xlink:href="#tdwhi"/></g></g><g><g><use fill="#65863a" xlink:href="#tdwhj"/></g></g><g><g><use fill="#1a937d" xlink:href="#tdwhk"/></g></g></g></g></g></svg>