<svg xmlns="http://www.w3.org/2000/svg" xmlns:xlink="http://www.w3.org/1999/xlink" width="31" height="31" viewBox="0 0 31 31"><defs><path id="dwiha" d="M71.73 505.51a3.73 3.73 0 0 1 3.73-3.72h22.36a3.73 3.73 0 0 1 3.72 3.72v22.36a3.73 3.73 0 0 1-3.72 3.73H75.46a3.73 3.73 0 0 1-3.73-3.73z"/><path id="dwihd" d="M77.7 509.5c0-.97.78-1.75 1.74-1.75h14.4c.96 0 1.74.78 1.74 1.74v14.4c0 .96-.78 1.74-1.75 1.74H79.44c-.96 0-1.74-.78-1.74-1.74z"/><path id="dwihe" d="M87.8 510.91c0-.46.38-.84.84-.84h3.78c.46 0 .84.38.84.84v6.15c0 .46-.38.84-.84.84h-3.78a.84.84 0 0 1-.84-.84z"/><path id="dwihf" d="M80.02 510.91c0-.46.38-.84.84-.84h3.78c.46 0 .84.38.84.84v10.62c0 .46-.38.84-.84.84h-3.78a.84.84 0 0 1-.84-.84z"/><mask id="dwihc" width="2" height="2" x="-1" y="-1"><path fill="#fff" d="M71 501h31v31H71z"/><use xlink:href="#dwiha"/></mask><filter id="dwihb" width="71" height="76" x="51" y="491" filterUnits="userSpaceOnUse"><feOffset dy="5" in="SourceGraphic" result="FeOffset1118Out"/><feGaussianBlur in="FeOffset1118Out" result="FeGaussianBlur1119Out" stdDeviation="4 4"/></filter></defs><g><g transform="translate(-71 -501)"><g><g><g filter="url(#dwihb)"><use fill="none" stroke-opacity=".05" stroke-width="0" mask="url(&quot;#dwihc&quot;)" xlink:href="#dwiha"/><use fill="#2d3a42" fill-opacity=".05" xlink:href="#dwiha"/></g><use fill="#fff" xlink:href="#dwiha"/></g></g><g><g><g><use fill="#5780e0" xlink:href="#dwihd"/></g></g><g><g><use fill="#fff" xlink:href="#dwihe"/></g></g><g><g><use fill="#fff" xlink:href="#dwihf"/></g></g></g></g></g></svg>