<svg xmlns="http://www.w3.org/2000/svg" xmlns:xlink="http://www.w3.org/1999/xlink" width="31" height="31" viewBox="0 0 31 31"><defs><path id="c87la" d="M113.47 505.51a3.73 3.73 0 0 1 3.72-3.72h22.36a3.73 3.73 0 0 1 3.73 3.72v22.36a3.73 3.73 0 0 1-3.73 3.73H117.2a3.73 3.73 0 0 1-3.72-3.73z"/><path id="c87ld" d="M137.3 517.24a8.1 8.1 0 0 0-.18-1.9h-8.57v3.44h5.03c-.1.86-.65 2.15-1.87 3.02l-.01.11 2.7 2.14.2.02a9.16 9.16 0 0 0 2.7-6.83z"/><path id="c87le" d="M128.55 526.32a8.6 8.6 0 0 0 6.04-2.25l-2.87-2.27c-.77.54-1.8.93-3.17.93a5.5 5.5 0 0 1-5.18-3.86h-.11l-2.82 2.22-.03.1a9.1 9.1 0 0 0 8.14 5.13z"/><path id="c87lf" d="M123.36 518.87a5.8 5.8 0 0 1 0-3.67l-.01-.13-2.85-2.25-.1.04a9.43 9.43 0 0 0 0 8.34z"/><path id="c87lg" d="M128.55 511.34a5 5 0 0 1 3.53 1.38l2.58-2.56a8.68 8.68 0 0 0-6.1-2.41 9.1 9.1 0 0 0-8.15 5.11l2.95 2.34a5.52 5.52 0 0 1 5.2-3.86z"/><mask id="c87lc" width="2" height="2" x="-1" y="-1"><path fill="#fff" d="M113 501h31v31h-31z"/><use xlink:href="#c87la"/></mask><filter id="c87lb" width="71" height="76" x="93" y="491" filterUnits="userSpaceOnUse"><feOffset dy="5" in="SourceGraphic" result="FeOffset1165Out"/><feGaussianBlur in="FeOffset1165Out" result="FeGaussianBlur1166Out" stdDeviation="4 4"/></filter></defs><g><g transform="translate(-113 -501)"><g><g><g filter="url(#c87lb)"><use fill="none" stroke-opacity=".05" stroke-width="0" mask="url(&quot;#c87lc&quot;)" xlink:href="#c87la"/><use fill="#2d3a42" fill-opacity=".05" xlink:href="#c87la"/></g><use fill="#fff" xlink:href="#c87la"/></g></g><g><g><g><use fill="#4285f4" xlink:href="#c87ld"/></g></g><g><g><use fill="#34a853" xlink:href="#c87le"/></g></g><g><g><use fill="#fbbc05" xlink:href="#c87lf"/></g></g><g><g><use fill="#eb4335" xlink:href="#c87lg"/></g></g></g></g></g></svg>