<svg xmlns="http://www.w3.org/2000/svg" xmlns:xlink="http://www.w3.org/1999/xlink" width="31" height="31" viewBox="0 0 31 31"><defs><path id="1brja" d="M155.2 505.51a3.73 3.73 0 0 1 3.73-3.72h22.36a3.73 3.73 0 0 1 3.72 3.72v22.36a3.73 3.73 0 0 1-3.72 3.73h-22.36a3.73 3.73 0 0 1-3.73-3.73z"/><path id="1brjd" d="M167.45 520.9c.13 0 .2.06.26.11.66.7 1.1 1.2 1.46 1.68.08.1.17.31.05.55a4.94 4.94 0 0 0-.62 1.98.37.37 0 0 1-.36.34h-2.2a.37.37 0 0 1-.36-.39 8.17 8.17 0 0 1 1.47-4.1.36.36 0 0 1 .3-.17zm9.15-8.76a.37.37 0 0 1 .14.32 7.65 7.65 0 0 1-1.46 3.63c-.8 1.16-1.85 2.24-2.87 3.28l-.22.23a.27.27 0 0 0-.02.35c.24.3.47.6.68.92a8.37 8.37 0 0 1 1.6 4.3.36.36 0 0 1-.35.39h-2.2a.36.36 0 0 1-.37-.34c-.15-2.1-1.92-3.92-3.8-5.84a26.62 26.62 0 0 1-2.88-3.3 7.67 7.67 0 0 1-1.45-3.62.36.36 0 0 1 .36-.4 17.8 17.8 0 0 0 2.43.73c.15.04.27.15.32.28.53 1.45 1.87 2.82 3.28 4.27l.01.02a.42.42 0 0 0 .2.12h.07c.13 0 .2-.07.27-.12 1.41-1.45 2.76-2.84 3.29-4.3a.45.45 0 0 1 .32-.28 17.78 17.78 0 0 0 2.43-.72c.08 0 .15.03.22.08zm-1.58-2.08c0 .64-.52 1.16-1.15 1.16-.64 0-1.16-.52-1.16-1.16a1.16 1.16 0 1 1 2.31 0zm-7.6 0c0 .64-.5 1.16-1.15 1.16-.64 0-1.15-.52-1.15-1.16a1.16 1.16 0 1 1 2.3 0zm1.5-1.06a1.16 1.16 0 1 1 2.3 0c0 .64-.51 1.16-1.15 1.16-.64 0-1.16-.52-1.16-1.16z"/><path id="1brje" d="M170.07 513.22c.7 0 1.1-.04 1.23-.04a.34.34 0 0 1 .31.47c-.1.25-.5 1.13-1.28 1.9a.35.35 0 0 1-.26.1.35.35 0 0 1-.25-.1 5.88 5.88 0 0 1-1.29-1.9.34.34 0 0 1 .3-.47c.15 0 .55.04 1.24.04"/><mask id="1brjc" width="2" height="2" x="-1" y="-1"><path fill="#fff" d="M155 501h31v31h-31z"/><use xlink:href="#1brja"/></mask><filter id="1brjb" width="71" height="76" x="135" y="491" filterUnits="userSpaceOnUse"><feOffset dy="5" in="SourceGraphic" result="FeOffset1219Out"/><feGaussianBlur in="FeOffset1219Out" result="FeGaussianBlur1220Out" stdDeviation="4 4"/></filter></defs><g><g transform="translate(-155 -501)"><g><g><g filter="url(#1brjb)"><use fill="none" stroke-opacity=".05" stroke-width="0" mask="url(&quot;#1brjc&quot;)" xlink:href="#1brja"/><use fill="#2d3a42" fill-opacity=".05" xlink:href="#1brja"/></g><use fill="#fff" xlink:href="#1brja"/></g></g><g><g><g><use fill="#264970" xlink:href="#1brjd"/></g></g><g><g><use fill="#264970" xlink:href="#1brje"/></g></g></g></g></g></svg>