<svg xmlns="http://www.w3.org/2000/svg" xmlns:xlink="http://www.w3.org/1999/xlink" width="30" height="31" viewBox="0 0 30 31"><defs><path id="vzw5a" d="M206.46 531.6v-1.5h2.32a.75.75 0 1 1 0 1.5zm15.07-1.5v1.5h-1.16a.75.75 0 0 1 0-1.5zm0 1.5v-1.5c.27 0 .53-.03.77-.1a.75.75 0 1 1 .39 1.44c-.37.1-.76.16-1.16.16zm4.32-3.32l-1.44-.38c.06-.25.1-.5.1-.78v-1.16a.75.75 0 0 1 1.49 0v1.16c0 .4-.05.8-.15 1.16zm-1.44-.38l1.44.38a.75.75 0 1 1-1.44-.38zm1.59-13.53h-1.5v-2.32a.75.75 0 1 1 1.5 0zm-1.5-8.11c0-.27-.03-.53-.1-.78l1.45-.38c.1.37.15.76.15 1.16v1.16a.75.75 0 1 1-1.5 0zm-.1-.78a.75.75 0 0 1 1.45-.38l-1.44.38zm-1.71-3.54l-.39 1.44c-.24-.07-.5-.1-.77-.1h-1.16a.75.75 0 0 1 0-1.5h1.16c.4 0 .79.06 1.16.16zm-.39 1.44l.39-1.44a.75.75 0 1 1-.39 1.44zm-13.52-1.6v1.5h-2.32a.75.75 0 1 1 0-1.5zm0 0a.75.75 0 1 1 0 1.5v-1.5zm-8.12 1.5c-.27 0-.53.03-.77.1a.75.75 0 1 1-.39-1.44c.37-.1.76-.15 1.16-.15h1.16a.75.75 0 0 1 0 1.49h-1.16zm-4.32 1.82l1.44.38c-.06.25-.1.5-.1.78v1.16a.75.75 0 0 1-1.49 0v-1.16c0-.4.05-.79.15-1.16zm-.15 6.95h1.5v2.32a.75.75 0 1 1-1.5 0zm0 0a.75.75 0 1 1 1.5 0h-1.5zm1.5 15.07h-1.5v-1.16a.75.75 0 0 1 1.5 0zm-1.35 1.16c-.1-.37-.15-.76-.15-1.16h1.5c0 .27.03.53.1.78zm3.16 3.16l.39-1.44c.24.07.5.1.77.1h1.16a.75.75 0 1 1 0 1.5h-1.16c-.4 0-.79-.06-1.16-.16zm6.96-1.33v1.49a.75.75 0 1 1 0-1.5zm6.2.74c0-.41.34-.74.75-.74h2.32a.75.75 0 1 1 0 1.49h-2.32a.75.75 0 0 1-.74-.75zm12.6-8.78a.75.75 0 0 1-.75-.74V519a.75.75 0 1 1 1.49 0v2.32c0 .4-.33.74-.75.74zm-.75-7.7H226a.75.75 0 1 1-1.5 0zm-8.78-12.58a.75.75 0 1 1 0 1.49h-2.32a.75.75 0 1 1 0-1.5h2.32zm-17.95 3.7l-1.44-.39a.75.75 0 0 1 1.44.38zM196.2 519a.75.75 0 1 1 1.5 0v2.32a.75.75 0 1 1-1.5 0V519zm1.6 8.89a.75.75 0 1 1-1.45.38zm1.19 2.63c-.11.4.13.8.52.91l.39-1.44c-.4-.1-.8.13-.91.53z"/><path id="vzw5b" d="M211.1 510.73a.75.75 0 0 0-.75.74v4.48h-4.47a.75.75 0 0 0 0 1.49h4.47v4.47a.75.75 0 0 0 1.49 0v-4.47h4.47a.75.75 0 0 0 0-1.5h-4.47v-4.47a.75.75 0 0 0-.75-.74z"/></defs><g><g transform="translate(-196 -501)"><g><g><use fill="#e7e7e7" xlink:href="#vzw5a"/></g></g><g><g><use fill="#e7e7e7" xlink:href="#vzw5b"/></g></g></g></g></svg>