<svg xmlns="http://www.w3.org/2000/svg" xmlns:xlink="http://www.w3.org/1999/xlink" width="23" height="23" viewBox="0 0 23 23"><defs><path id="9jkua" d="M41.22 40.88a3 3 0 1 1 0 5.98 3 3 0 0 1 0-5.98z"/><path id="9jkub" d="M36 36.4a3 3 0 1 1 0 5.98 3 3 0 0 1 0-5.98z"/><path id="9jkuc" d="M45.12 35.7a2.62 2.62 0 1 1 0 5.22 2.62 2.62 0 0 1 0-5.23z"/><path id="9jkud" d="M48.32 31.24a2.24 2.24 0 1 1 0 4.49 2.24 2.24 0 0 1 0-4.49z"/><path id="9jkue" d="M51.41 27.16a1.87 1.87 0 1 1 0 3.74 1.87 1.87 0 0 1 0-3.74z"/><path id="9jkuf" d="M54.13 24a1.12 1.12 0 1 1 0 2.24 1.12 1.12 0 0 1 0-2.24z"/></defs><g><g transform="translate(-33 -24)"><use fill="#fff" xlink:href="#9jkua"/></g><g transform="translate(-33 -24)"><use fill="#fff" xlink:href="#9jkub"/></g><g transform="translate(-33 -24)"><use fill="#fff" xlink:href="#9jkuc"/></g><g transform="translate(-33 -24)"><use fill="#fff" xlink:href="#9jkud"/></g><g transform="translate(-33 -24)"><use fill="#fff" xlink:href="#9jkue"/></g><g transform="translate(-33 -24)"><use fill="#fff" xlink:href="#9jkuf"/></g></g></svg>