<svg xmlns="http://www.w3.org/2000/svg" xmlns:xlink="http://www.w3.org/1999/xlink" width="20" height="20" viewBox="0 0 20 20"><defs><path id="vahsa" d="M55 181a9.96 9.96 0 0 1-10 10 9.95 9.95 0 0 1-10-10 9.95 9.95 0 0 1 10-10 9.96 9.96 0 0 1 10 10zm-1.67 0a8.42 8.42 0 0 0-2.44-5.9 8.42 8.42 0 0 0-9.13-1.77 8.42 8.42 0 0 0-2.65 1.78 8.42 8.42 0 0 0-1.78 9.13 8.42 8.42 0 0 0 1.78 2.65 8.42 8.42 0 0 0 9.13 1.78 8.42 8.42 0 0 0 2.65-1.78 8.42 8.42 0 0 0 2.44-5.89zm-1.66 0c0 1.84-.65 3.41-1.96 4.71a6.42 6.42 0 0 1-4.71 1.96 6.42 6.42 0 0 1-4.71-1.96 6.42 6.42 0 0 1-1.96-4.71c0-1.84.65-3.41 1.96-4.71a6.42 6.42 0 0 1 4.71-1.96c1.84 0 3.41.65 4.71 1.96a6.42 6.42 0 0 1 1.96 4.71zM50 181c0-1.38-.49-2.56-1.46-3.54A4.82 4.82 0 0 0 45 176c-1.38 0-2.56.49-3.54 1.46A4.82 4.82 0 0 0 40 181c0 1.38.49 2.56 1.46 3.54A4.82 4.82 0 0 0 45 186c1.38 0 2.56-.49 3.54-1.46A4.82 4.82 0 0 0 50 181zm-1.67 0c0 .92-.32 1.7-.97 2.36-.65.65-1.44.97-2.36.97-.92 0-1.7-.32-2.36-.97a3.21 3.21 0 0 1-.97-2.36c0-.92.32-1.7.97-2.36a3.21 3.21 0 0 1 2.36-.97c.92 0 1.7.32 2.36.97.65.65.97 1.44.97 2.36z"/></defs><g><g transform="translate(-35 -171)"><use fill="#1e88e5" xlink:href="#vahsa"/></g></g></svg>