<svg xmlns="http://www.w3.org/2000/svg" xmlns:xlink="http://www.w3.org/1999/xlink" width="20" height="20" viewBox="0 0 20 20"><defs><path id="gz93a" d="M45 389.44a3.43 3.43 0 1 1 0-6.87 3.43 3.43 0 0 1 0 6.87zm7.3-2.48a7.7 7.7 0 0 0 0-1.92l2.07-1.62a.49.49 0 0 0 .12-.63l-1.96-3.4c-.13-.21-.38-.3-.6-.21l-2.45.98a7.45 7.45 0 0 0-1.66-.96l-.37-2.6a.5.5 0 0 0-.49-.42h-3.92a.5.5 0 0 0-.49.41l-.37 2.6c-.6.26-1.15.58-1.66.97l-2.44-.98a.5.5 0 0 0-.6.2l-1.96 3.4a.5.5 0 0 0 .11.64l2.08 1.62a7.7 7.7 0 0 0 0 1.92l-2.08 1.62a.49.49 0 0 0-.11.63l1.96 3.4c.12.21.38.3.6.21l2.44-.98c.5.38 1.06.71 1.66.96l.37 2.6a.5.5 0 0 0 .49.42h3.92a.5.5 0 0 0 .49-.41l.37-2.6c.6-.26 1.15-.58 1.66-.97l2.44.98a.5.5 0 0 0 .6-.2l1.96-3.4a.5.5 0 0 0-.11-.64z"/></defs><g><g transform="translate(-35 -376)"><use fill="#c7c7c7" xlink:href="#gz93a"/></g></g></svg>