<svg xmlns="http://www.w3.org/2000/svg" xmlns:xlink="http://www.w3.org/1999/xlink" width="20" height="20" viewBox="0 0 20 20"><defs><path id="1f5ea" d="M45.1 438.47c-.64 0-.98.5-.98 1.47h-1.96c0-.01-.16-1.24.6-2.1.49-.56 1.24-.84 2.25-.84a2.73 2.73 0 0 1 3.03 2.76c0 1.27-.59 1.9-1.1 2.44-.45.46-.86.9-.86 1.66h-1.96c0-1.34.54-1.83 1.06-2.3.46-.43.9-.83.9-1.8 0-.36-.18-1.29-.98-1.29zm.98 6.37v1.96h-1.96v-1.96zm5.94 3.99a9.74 9.74 0 0 0 0-13.85 9.73 9.73 0 0 0-13.85 0 9.82 9.82 0 0 0 13.85 13.85z"/></defs><g><g transform="translate(-35 -432)"><use fill="#1e88e5" xlink:href="#1f5ea"/></g></g></svg>